# xmcd CD database file
#
# Track frame offsets:
#	150
#	40018
#	88487
#	99690
#	120750
#	132553
#	156378
#	184822
#	223197
#	249833
#	274911
#	299299
#	311418
#	336981
#
# Disc length: 4752 seconds
#
# Revision: 0
# Processed by: cddbd v1.5.2PL0 Copyright (c) Steve Scherf et al.
# Submitted via: CDex 1.50
#
DISCID=d4128e0e
DTITLE=JAZZ GREATS, THE ESSENTIAL MASTERPIECES/ TRILOGY - CD 2
DYEAR=2006
DGENRE=Jazz
TTITLE0=BLUE TRAIN - John Coltrane
TTITLE1=SO WHAT - Miles Davis
TTITLE2=CARAVAN - Duke Ellington
TTITLE3=JEEPSTERS CREEPERS - Louis Armstrong
TTITLE4=GROOVIN´ HIGH - Charlie Parker
TTITLE5=WHAT ARE YOU DOING THE REST OF YOUR LIFE? - Bill Evans
TTITLE6=TURKISH WOMAN - Chick Corea
TTITLE7=BLUES FOR GERRY - Gerry Mulligan
TTITLE8=FAREWELL, FAREWELL - Charles Mingus
TTITLE9=RUBY MY DEAR - Thelonious Monk
TTITLE10=TAKE FIVE - Dave Brubeck
TTITLE11=I CAN´T GET STARTED - Dizzy Gillespie
TTITLE12=KAMILI - Herbie Hancock
TTITLE13=PORT OF CALL Cecil Taylor
EXTD=YEAR: 2006
EXTT0=
EXTT1=
EXTT2=
EXTT3=
EXTT4=
EXTT5=
EXTT6=
EXTT7=
EXTT8=
EXTT9=
EXTT10=
EXTT11=
EXTT12=
EXTT13=
PLAYORDER=
